HIERARCHY
ROOT Hips
{
	OFFSET	0.00	0.00	0.00
	CHANNELS 6 Xposition Yposition Zposition Zrotation Xrotation Yrotation
	JOINT LeftUpLeg
	{
		OFFSET	 0.126116	-0.014019	-0.065224
		CHANNELS 3 Zrotation Xrotation Yrotation
		JOINT LeftLeg
		{
			OFFSET	 0.000000	 0.000000	 0.569914
			CHANNELS 3 Zrotation Xrotation Yrotation
			JOINT LeftFoot
			{
				OFFSET	 0.000000	 0.000000	 0.544423
				CHANNELS 3 Zrotation Xrotation Yrotation
				JOINT LeftToeBase
				{
					OFFSET	 0.000000	 0.000000	 0.207117
					CHANNELS 3 Zrotation Xrotation Yrotation
					End Site
					{
						OFFSET	 0.000000	 0.000000	 0.207117
					}
				}
			}
		}
	}
	JOINT RightUpLeg
	{
		OFFSET	-0.124023	-0.008373	-0.065224
		CHANNELS 3 Zrotation Xrotation Yrotation
		JOINT RightLeg
		{
			OFFSET	 0.000000	 0.000000	 0.570047
			CHANNELS 3 Zrotation Xrotation Yrotation
			JOINT RightFoot
			{
				OFFSET	 0.000000	 0.000000	 0.544354
				CHANNELS 3 Zrotation Xrotation Yrotation
				JOINT RightToeBase
				{
					OFFSET	 0.000000	 0.000000	 0.207540
					CHANNELS 3 Zrotation Xrotation Yrotation
					End Site
					{
						OFFSET	 0.000000	 0.000000	 0.207540
					}
				}
			}
		}
	}
	JOINT Spine
	{
		OFFSET	 0.000184	-0.007763	 0.117403
		CHANNELS 3 Zrotation Xrotation Yrotation
		JOINT Spine1
		{
			OFFSET	 0.000000	 0.000000	 0.137269
			CHANNELS 3 Zrotation Xrotation Yrotation
			JOINT Spine2
			{
				OFFSET	 0.000000	 0.000000	 0.156879
				CHANNELS 3 Zrotation Xrotation Yrotation
				JOINT LeftShoulder
				{
					OFFSET	 0.080501	-0.002496	 0.160144
					CHANNELS 3 Zrotation Xrotation Yrotation
					JOINT LeftArm
					{
						OFFSET	 0.000000	 0.000000	 0.164363
						CHANNELS 3 Zrotation Xrotation Yrotation
						JOINT LeftForeArm
						{
							OFFSET	 0.000000	 0.000000	 0.364576
							CHANNELS 3 Zrotation Xrotation Yrotation
							JOINT LeftHand
							{
								OFFSET	 0.000000	 0.000000	 0.360812
								CHANNELS 3 Zrotation Xrotation Yrotation
								JOINT LeftHandIndex1
								{
									OFFSET	 0.000000	 0.000000	 0.086006
									CHANNELS 3 Zrotation Xrotation Yrotation
									JOINT LeftHandIndex2
									{
										OFFSET	 0.000000	 0.000000	 0.047236
										CHANNELS 3 Zrotation Xrotation Yrotation
										JOINT LeftHandIndex3
										{
											OFFSET	-0.004284	-0.000551	 0.038166
											CHANNELS 3 Zrotation Xrotation Yrotation
											End Site
											{
												OFFSET	-0.004284	-0.000551	 0.038166
											}
										}
									}
								}
							}
						}
					}
				}
				JOINT Neck
				{
					OFFSET	 0.000000	 0.000000	 0.176489
					CHANNELS 3 Zrotation Xrotation Yrotation
					JOINT Head
					{
						OFFSET	 0.000000	-0.001747	 0.077940
						CHANNELS 3 Zrotation Xrotation Yrotation
						End Site
						{
							OFFSET	 0.000000	-0.001747	 0.077940
						}
					}
				}
				JOINT RightShoulder
				{
					OFFSET	-0.080363	 0.000306	 0.159706
					CHANNELS 3 Zrotation Xrotation Yrotation
					JOINT RightArm
					{
						OFFSET	 0.000000	 0.000000	 0.164196
						CHANNELS 3 Zrotation Xrotation Yrotation
						JOINT RightForeArm
						{
							OFFSET	 0.000000	 0.000000	 0.365611
							CHANNELS 3 Zrotation Xrotation Yrotation
							JOINT RightHand
							{
								OFFSET	 0.000000	 0.000000	 0.360648
								CHANNELS 3 Zrotation Xrotation Yrotation
								JOINT RightHandIndex1
								{
									OFFSET	 0.000000	 0.000000	 0.069977
									CHANNELS 3 Zrotation Xrotation Yrotation
									JOINT RightHandIndex2
									{
										OFFSET	 0.000000	 0.000000	 0.052305
										CHANNELS 3 Zrotation Xrotation Yrotation
										JOINT RightHandIndex3
										{
											OFFSET	 0.009002	-0.000782	 0.042196
											CHANNELS 3 Zrotation Xrotation Yrotation
											End Site
											{
												OFFSET	 0.009002	-0.000782	 0.042196
											}
										}
									}
								}
							}
						}
					}
				}
			}
		}
	}
}
MOTION
Frames:    7
Frame Time: 0.03333334
 0.000178	 0.041382	 1.275346	-0.109558	 1.991996	 0.454316	 4.072450	-5.154083	 178.181800	 2.385798	-13.135600	 0.637333	-0.650689	 71.262930	 0.415586	-2.385833	 28.452750	 0.000004	 3.578466	-4.784837	-178.397100	-0.807994	-11.837830	 0.891602	 5.671693	 70.285020	 0.643111	 2.384659	 28.388700	-0.000001	-6.241346	 6.022356	 1.268893	-3.009372	-2.199494	-0.110648	 9.424433	 4.668544	-0.445830	-91.290430	 70.648160	-178.121400	-8.894806	 4.208189	-19.856130	 26.469510	-0.138881	-0.509731	-10.718340	-21.974920	-4.189182	-2.027600	 6.559038	 9.033609	-5.188889	 0.308190	 3.541030	-5.234859	 0.342567	 0.430617	 4.128215	 15.537680	-5.985364	 4.457123	-11.946670	 2.141536	 89.179560	 69.865470	 177.720500	 9.765220	 8.146336	 9.055945	-27.287650	-5.955524	 16.238490	 8.417345	-22.478750	 6.982305	 1.803333	 3.979147	-15.098590	 4.898592	 3.004813	-9.310344	 5.224449	 0.395017	 2.014677
-0.000124	 0.043725	 1.275826	-0.083417	 2.474384	 0.461758	 4.117115	-5.578671	 178.192400	 2.274348	-12.672530	 0.590736	-0.410725	 70.808270	 0.264890	-2.385833	 28.452750	 0.000004	 3.448574	-5.169534	-178.354900	-0.796836	-11.307260	 0.854379	 5.372511	 69.870050	 0.946386	 2.384659	 28.388700	-0.000001	-7.030493	 6.367467	 1.367386	-3.074262	-3.142123	-0.171982	 9.539294	 5.968571	-0.611922	-91.168770	 69.782480	-177.825100	-8.062647	 4.285066	-21.135120	 25.791380	-0.131619	-0.674929	-9.763643	-23.411870	-4.530576	-2.027600	 6.559038	 9.033609	-5.188889	 0.308190	 3.541030	-5.234859	 0.342567	 0.430617	 4.371326	 17.801270	-6.690720	 4.682798	-13.693070	 2.189795	 89.013790	 68.675470	 177.363800	 8.911012	 7.862611	 9.418530	-26.895690	-6.458864	 18.052350	 7.317644	-23.452040	 6.702172	 1.803333	 3.979147	-15.098590	 4.898592	 3.004813	-9.310344	 5.224449	 0.395017	 2.014677
-0.000368	 0.046035	 1.276035	-0.063090	 2.882140	 0.477634	 4.152493	-6.008438	 178.190000	 2.183245	-12.385170	 0.557975	-0.203220	 70.454430	 0.129336	-2.385833	 28.452750	 0.000004	 3.342928	-5.553721	-178.332200	-0.786148	-10.940900	 0.829081	 5.149600	 69.538880	 1.171803	 2.384659	 28.388700	-0.000001	-7.677538	 6.667532	 1.438769	-3.128156	-3.837684	-0.199033	 9.617324	 7.027607	-0.757618	-91.059750	 69.049580	-177.579600	-7.225075	 4.653859	-22.352630	 25.234640	-0.124852	-0.816168	-8.998089	-24.561990	-4.852757	-2.027600	 6.559038	 9.033609	-5.188889	 0.308190	 3.541030	-5.234859	 0.342567	 0.430617	 4.602309	 19.715590	-7.300401	 4.863151	-15.161650	 2.232046	 88.864970	 67.668180	 177.069300	 8.174766	 8.019627	 9.905473	-26.616040	-6.783869	 19.307440	 6.403173	-24.238630	 6.472869	 1.803333	 3.979147	-15.098590	 4.898592	 3.004813	-9.310344	 5.224449	 0.395017	 2.014677
-0.000744	 0.049230	 1.275964	-0.020509	 3.451031	 0.518009	 4.152301	-6.790751	 178.164200	 2.154407	-12.359170	 0.550638	-0.024032	 70.234390	-0.041952	-2.385833	 28.452750	 0.000004	 3.198424	-6.244654	-178.339700	-0.781238	-10.755060	 0.816089	 4.880642	 69.240300	 1.455632	 2.384659	 28.388700	-0.000001	-8.307654	 6.991943	 1.502382	-3.147257	-4.614318	-0.250198	 9.554799	 8.096725	-0.889123	-90.964840	 68.399940	-177.384300	-6.253309	 5.562289	-23.725520	 24.548660	-0.114499	-0.975812	-8.415730	-26.031470	-5.379651	-2.027600	 6.559038	 9.033609	-5.188889	 0.308190	 3.541030	-5.234859	 0.342567	 0.430617	 4.703151	 21.583420	-7.863978	 5.067426	-16.703240	 2.322948	 88.705150	 66.559390	 176.787400	 7.247424	 8.578893	 10.574930	-26.195960	-6.972969	 20.402660	 5.473218	-25.248610	 6.317447	 1.803333	 3.979147	-15.098590	 4.898592	 3.004813	-9.310344	 5.224449	 0.395017	 2.014677
-0.001165	 0.052909	 1.275661	 0.030661	 4.077549	 0.570195	 4.081820	-7.767318	 178.119200	 2.116066	-12.549340	 0.561043	 0.141704	 70.121800	-0.240286	-2.385833	 28.452750	 0.000004	 3.043939	-7.114173	-178.368600	-0.779674	-10.754530	 0.816342	 4.628533	 69.000880	 1.726883	 2.384659	 28.388700	-0.000001	-8.881871	 7.320417	 1.550840	-3.134409	-5.253778	-0.283502	 9.400988	 9.065279	-1.001290	-90.882400	 67.829240	-177.226100	-5.230783	 6.751173	-25.226850	 23.834350	-0.102008	-1.139201	-8.002747	-27.562210	-6.017574	-2.027600	 6.559038	 9.033609	-5.188889	 0.308190	 3.541030	-5.234859	 0.342567	 0.430617	 4.734867	 23.328590	-8.366638	 5.256837	-18.193240	 2.440646	 88.546100	 65.456500	 176.529000	 6.254904	 9.409412	 11.512990	-25.757740	-6.998327	 21.125440	 4.603258	-26.303600	 6.230381	 1.803333	 3.979147	-15.098590	 4.898592	 3.004813	-9.310344	 5.224449	 0.395017	 2.014677
-0.001597	 0.056942	 1.275301	 0.084611	 4.754351	 0.627093	 4.115423	-8.859650	 178.087900	 2.189339	-12.818330	 0.573818	 0.339762	 70.033490	-0.469645	-2.385833	 28.452760	 0.000004	 2.872519	-8.084149	-178.406300	-0.841471	-10.807620	 0.808669	 4.434182	 68.778020	 2.004275	 2.384659	 28.388700	-0.000001	-9.409426	 7.652216	 1.579730	-3.099128	-5.780383	-0.281810	 9.184651	 9.952206	-1.117033	-90.824310	 67.200400	-177.158600	-4.159400	 7.860219	-26.754390	 22.929200	-0.085950	-1.303716	-7.871735	-29.007610	-6.778999	-2.027600	 6.559038	 9.033609	-5.188889	 0.308190	 3.541030	-5.234859	 0.342567	 0.430617	 4.706212	 24.793130	-8.734104	 5.372782	-19.476250	 2.512193	 88.424020	 64.343780	 176.387400	 5.151524	 10.219670	 12.564090	-25.241410	-6.900712	 21.632590	 3.829068	-27.285840	 6.273636	 1.803333	 3.979147	-15.098590	 4.898592	 3.004813	-9.310344	 5.224449	 0.395017	 2.014677
-0.002064	 0.061378	 1.275073	 0.148711	 5.557873	 0.691860	 4.032292	-10.090630	 178.042800	 2.154480	-13.055520	 0.581149	 0.590907	 69.921620	-0.739782	-2.385832	 28.452790	-0.000001	 2.654111	-9.157078	-178.450700	-1.059442	-10.748580	 0.763448	 4.322890	 68.504800	 2.359082	 2.384659	 28.388700	-0.000001	-9.863228	 7.973303	 1.579491	-3.038819	-6.368014	-0.263820	 8.861296	 10.773530	-1.244810	-90.830120	 66.423880	-177.298400	-3.044476	 8.616866	-28.054830	 21.550850	-0.064066	-1.469236	-8.316540	-30.344920	-7.767445	-2.027600	 6.559038	 9.033609	-5.188889	 0.308190	 3.541030	-5.234859	 0.342567	 0.430617	 4.500221	 25.614320	-8.785590	 5.343176	-20.311460	 2.462174	 88.401660	 63.189190	 176.508100	 3.808202	 10.674040	 13.308100	-24.425750	-6.748992	 22.372370	 3.236526	-28.154880	 6.587978	 1.803333	 3.979147	-15.098590	 4.898592	 3.004813	-9.310344	 5.224449	 0.395017	 2.014677
